<?xml version="1.0" encoding="UTF-8"?>
<svg width="36px" height="26px" viewBox="0 0 36 26" version="1.1" xmlns="http://www.w3.org/2000/svg" xmlns:xlink="http://www.w3.org/1999/xlink">
    <!-- Generator: Sketch 52.4 (67378) - http://www.bohemiancoding.com/sketch -->
    <title>docker</title>
    <desc>Created with Sketch.</desc>
    <g id="Page-1" stroke="none" stroke-width="1" fill="none" fill-rule="evenodd">
        <g id="docker" fill="#000000">
            <path d="M35.3747,9.67785 C35.2778,9.6009 34.37325,8.9179 32.46565,8.9179 C31.96195,8.9201 31.4593,8.9633 30.9626,9.0471 C30.5934,6.5165 28.5012,5.2827 28.4074,5.22735 L27.89515,4.93195 L27.55825,5.4181 C27.13635,6.07115 26.82835,6.79105 26.64755,7.5472 C26.306,8.99175 26.5137,10.34855 27.2475,11.5085 C26.3614,12.0023 24.93995,12.12385 24.6523,12.1346 L1.11835,12.1346 C0.50365,12.13545 0.00485,12.6322 0.0015,13.24685 C-0.02595,15.30855 0.32335,17.35795 1.0322,19.29415 C1.8429,21.4202 3.049,22.98625 4.61815,23.94465 C6.3765,25.0215 9.23325,25.63685 12.4715,25.63685 C13.9344,25.64145 15.39455,25.50905 16.8328,25.2415 C18.8321,24.8744 20.75595,24.1756 22.52475,23.1739 C23.9822,22.3299 25.2939,21.2562 26.40915,19.9941 C28.27365,17.88345 29.3844,15.5328 30.21045,13.44375 C30.3212,13.44375 30.432,13.44375 30.53965,13.44375 C32.58105,13.44375 33.8364,12.62685 34.52865,11.9423 C34.9887,11.5057 35.34785,10.97385 35.5809,10.38395 L35.72705,9.9563 L35.3747,9.67785 Z" id="Path"></path>
            <path d="M3.29975,11.44545 L6.4534,11.44545 C6.6055,11.44545 6.72875,11.32215 6.72875,11.1701 L6.72875,8.361 C6.7296,8.2089 6.607,8.08495 6.45495,8.0841 C6.45445,8.0841 6.4539,8.0841 6.4534,8.0841 L3.29975,8.0841 C3.14765,8.0841 3.0244,8.2074 3.0244,8.35945 C3.0244,8.35995 3.0244,8.3605 3.0244,8.361 L3.0244,11.17005 C3.0244,11.32215 3.14765,11.44545 3.29975,11.44545" id="Path"></path>
            <path d="M7.64565,11.44545 L10.7993,11.44545 C10.9514,11.44545 11.07465,11.32215 11.07465,11.1701 L11.07465,8.361 C11.0755,8.2089 10.9529,8.08495 10.8008,8.0841 C10.8003,8.0841 10.79975,8.0841 10.79925,8.0841 L7.6456,8.0841 C7.49265,8.0841 7.3687,8.20805 7.3687,8.361 L7.3687,11.17005 C7.3696,11.3224 7.4933,11.44545 7.64565,11.44545" id="Path"></path>
            <path d="M12.05765,11.44545 L15.2113,11.44545 C15.3634,11.44545 15.48665,11.32215 15.48665,11.1701 L15.48665,8.361 C15.4875,8.2089 15.3649,8.08495 15.2128,8.0841 C15.2123,8.0841 15.21175,8.0841 15.21125,8.0841 L12.0576,8.0841 C11.9055,8.0841 11.78225,8.2074 11.78225,8.35945 C11.78225,8.35995 11.78225,8.3605 11.78225,8.361 L11.78225,11.17005 C11.7823,11.32215 11.9056,11.44545 12.05765,11.44545" id="Path"></path>
            <path d="M16.4174,11.44545 L19.57105,11.44545 C19.7234,11.44545 19.8471,11.32245 19.84795,11.1701 L19.84795,8.361 C19.84795,8.20805 19.724,8.0841 19.57105,8.0841 L16.4174,8.0841 C16.2653,8.0841 16.14205,8.2074 16.14205,8.35945 C16.14205,8.35995 16.14205,8.3605 16.14205,8.361 L16.14205,11.17005 C16.14205,11.32215 16.26535,11.44545 16.4174,11.44545" id="Path"></path>
            <path d="M7.64565,7.40415 L10.7993,7.40415 C10.9516,7.4033 11.07465,7.27955 11.07465,7.12725 L11.07465,4.3182 C11.07465,4.1661 10.95135,4.04285 10.7993,4.04285 L7.64565,4.04285 C7.49335,4.04285 7.3696,4.16585 7.36875,4.3182 L7.36875,7.12725 C7.3696,7.27985 7.49305,7.4033 7.64565,7.40415" id="Path"></path>
            <path d="M12.05765,7.40415 L15.2113,7.40415 C15.3636,7.4033 15.48665,7.27955 15.48665,7.12725 L15.48665,4.3182 C15.48665,4.1661 15.36335,4.04285 15.2113,4.04285 L12.05765,4.04285 C11.90555,4.04285 11.7823,4.16615 11.7823,4.3182 L11.7823,7.12725 C11.7823,7.27955 11.90535,7.4033 12.05765,7.40415" id="Path"></path>
            <path d="M16.4174,7.40415 L19.57105,7.40415 C19.72365,7.4033 19.8471,7.27985 19.84795,7.12725 L19.84795,4.3182 C19.8471,4.16585 19.7234,4.04285 19.57105,4.04285 L16.4174,4.04285 C16.2653,4.04285 16.14205,4.16615 16.14205,4.3182 L16.14205,7.12725 C16.14205,7.27955 16.2651,7.4033 16.4174,7.40415" id="Path"></path>
            <path d="M16.4174,3.36135 L19.57105,3.36135 C19.7234,3.36135 19.8471,3.2383 19.84795,3.086 L19.84795,0.27535 C19.8471,0.123 19.7234,0 19.57105,0 L16.4174,0 C16.2653,0 16.14205,0.12325 16.14205,0.27535 L16.14205,3.08595 C16.14205,3.23805 16.26535,3.36135 16.4174,3.36135" id="Path"></path>
            <path d="M20.8156,11.44545 L23.96925,11.44545 C24.1216,11.44545 24.2453,11.32245 24.24615,11.1701 L24.24615,8.361 C24.24615,8.20805 24.1222,8.0841 23.96925,8.0841 L20.8156,8.0841 C20.66355,8.0841 20.54025,8.2074 20.54025,8.35945 C20.54025,8.35995 20.54025,8.3605 20.54025,8.361 L20.54025,11.17005 C20.54025,11.32215 20.66355,11.44545 20.8156,11.44545" id="Path"></path>
        </g>
    </g>
</svg>